<?xml version="1.0" encoding="UTF-8" standalone="no"?>
<svg width="34px" height="34px" viewBox="0 0 34 34" version="1.1" xmlns="http://www.w3.org/2000/svg" xmlns:xlink="http://www.w3.org/1999/xlink">
    <!-- Generator: Sketch 39.1 (31720) - http://www.bohemiancoding.com/sketch -->
    <title>分享</title>
    <desc>Created with Sketch.</desc>
    <defs></defs>
    <g id="首页---100%--" stroke="none" stroke-width="1" fill="none" fill-rule="evenodd" opacity="0.3">
        <g id="产品秀---展示" transform="translate(-506.000000, -2685.000000)" fill="#000000">
            <g id="模块2" transform="translate(0.000000, 1705.000000)">
                <g id="分享" transform="translate(506.000000, 980.000000)">
                    <path d="M32,6.6 C32,9.14051525 29.9405153,11.2 27.4,11.2 C24.8594847,11.2 22.8,9.14051525 22.8,6.6 C22.8,4.05948475 24.8594847,2 27.4,2 C29.9405153,2 32,4.05948475 32,6.6 L32,6.6 Z M34,6.6 C34,2.95491525 31.0450847,0 27.4,0 C23.7549153,0 20.8,2.95491525 20.8,6.6 C20.8,10.2450847 23.7549153,13.2 27.4,13.2 C31.0450847,13.2 34,10.2450847 34,6.6 L34,6.6 Z" id="Shape"></path>
                    <path d="M32,27.4 C32,29.9405153 29.9405153,32 27.4,32 C24.8594847,32 22.8,29.9405153 22.8,27.4 C22.8,24.8594847 24.8594847,22.8 27.4,22.8 C29.9405153,22.8 32,24.8594847 32,27.4 L32,27.4 Z M34,27.4 C34,23.7549153 31.0450847,20.8 27.4,20.8 C23.7549153,20.8 20.8,23.7549153 20.8,27.4 C20.8,31.0450847 23.7549153,34 27.4,34 C31.0450847,34 34,31.0450847 34,27.4 L34,27.4 Z" id="Shape"></path>
                    <path d="M14.4,17 C14.4,20.4245153 11.6245153,23.2 8.2,23.2 C4.77548475,23.2 2,20.4245153 2,17 C2,13.5754847 4.77548475,10.8 8.2,10.8 C11.6245153,10.8 14.4,13.5754847 14.4,17 L14.4,17 Z M16.4,17 C16.4,12.4709153 12.7290847,8.8 8.2,8.8 C3.67091525,8.8 0,12.4709153 0,17 C0,21.5290847 3.67091525,25.2 8.2,25.2 C12.7290847,25.2 16.4,21.5290847 16.4,17 L16.4,17 Z" id="Shape"></path>
                    <polygon id="Shape" points="15.5070202 13.8619342 22.3070201 9.86193421 21.2929799 8.13806579 14.4929799 12.1380658"></polygon>
                    <polygon id="Shape" points="14.574203 21.9048187 21.374203 25.1048187 22.225797 23.2951813 15.4257971 20.0951813"></polygon>
                </g>
            </g>
        </g>
    </g>
</svg>